<svg xmlns="http://www.w3.org/2000/svg" viewBox="0 0 240 140" role="img" aria-label="Ilustracao bike de entrega">
  <defs>
    <linearGradient id="bgBike" x1="0" y1="0" x2="1" y2="1">
      <stop offset="0%" stop-color="#e9f7ff" />
      <stop offset="100%" stop-color="#f4ffe9" />
    </linearGradient>
  </defs>
  <rect width="240" height="140" fill="url(#bgBike)" />
  <rect x="0" y="108" width="240" height="32" fill="#d9e2ec" />

  <circle cx="66" cy="102" r="22" fill="#0f172a" />
  <circle cx="66" cy="102" r="14" fill="#f8fafc" />
  <circle cx="164" cy="102" r="22" fill="#0f172a" />
  <circle cx="164" cy="102" r="14" fill="#f8fafc" />

  <path d="M66 102 L102 76 L126 102 L88 102 Z" fill="none" stroke="#0ea5e9" stroke-width="6" stroke-linecap="round" stroke-linejoin="round" />
  <path d="M102 76 L146 76 L164 102" fill="none" stroke="#0ea5e9" stroke-width="6" stroke-linecap="round" stroke-linejoin="round" />
  <path d="M98 76 L90 60" fill="none" stroke="#0f172a" stroke-width="5" stroke-linecap="round" />
  <path d="M146 76 L158 60" fill="none" stroke="#0f172a" stroke-width="5" stroke-linecap="round" />
  <rect x="132" y="54" width="26" height="10" rx="3" fill="#0f172a" />

  <rect x="106" y="34" width="34" height="24" rx="4" fill="#22c55e" />
  <rect x="111" y="38" width="24" height="6" rx="2" fill="#dcfce7" />

  <circle cx="88" cy="48" r="8" fill="#0f172a" />
  <path d="M88 56 L88 70 L104 76" fill="none" stroke="#0f172a" stroke-width="5" stroke-linecap="round" stroke-linejoin="round" />
</svg>
