<svg xmlns="http://www.w3.org/2000/svg" viewBox="0 0 240 140" role="img" aria-label="Ilustracao carro de entrega">
  <defs>
    <linearGradient id="bgCar" x1="0" y1="0" x2="1" y2="1">
      <stop offset="0%" stop-color="#f0fdf4" />
      <stop offset="100%" stop-color="#e0f2fe" />
    </linearGradient>
  </defs>
  <rect width="240" height="140" fill="url(#bgCar)" />
  <rect x="0" y="108" width="240" height="32" fill="#d1fae5" />

  <path d="M42 92 L62 66 C66 60 72 58 78 58 L148 58 C154 58 160 60 164 66 L184 92 Z" fill="#16a34a" />
  <rect x="48" y="86" width="136" height="20" rx="8" fill="#15803d" />

  <rect x="78" y="64" width="28" height="18" rx="3" fill="#e0f2fe" />
  <rect x="112" y="64" width="34" height="18" rx="3" fill="#e0f2fe" />

  <circle cx="76" cy="104" r="18" fill="#0f172a" />
  <circle cx="76" cy="104" r="10" fill="#f8fafc" />
  <circle cx="164" cy="104" r="18" fill="#0f172a" />
  <circle cx="164" cy="104" r="10" fill="#f8fafc" />

  <rect x="156" y="40" width="30" height="16" rx="3" fill="#22c55e" />
  <rect x="161" y="44" width="20" height="6" rx="2" fill="#dcfce7" />

  <circle cx="62" cy="94" r="3" fill="#fef08a" />
  <circle cx="184" cy="94" r="3" fill="#fef08a" />
</svg>
