<svg xmlns="http://www.w3.org/2000/svg" viewBox="0 0 240 140" role="img" aria-label="Ilustracao moto de entrega">
  <defs>
    <linearGradient id="bgMoto" x1="0" y1="0" x2="1" y2="1">
      <stop offset="0%" stop-color="#ecfeff" />
      <stop offset="100%" stop-color="#eff6ff" />
    </linearGradient>
  </defs>
  <rect width="240" height="140" fill="url(#bgMoto)" />
  <rect x="0" y="108" width="240" height="32" fill="#dbeafe" />

  <circle cx="76" cy="102" r="21" fill="#111827" />
  <circle cx="76" cy="102" r="13" fill="#f8fafc" />
  <circle cx="168" cy="102" r="21" fill="#111827" />
  <circle cx="168" cy="102" r="13" fill="#f8fafc" />

  <path d="M76 102 L116 86 L156 86 L168 102" fill="none" stroke="#2563eb" stroke-width="7" stroke-linecap="round" stroke-linejoin="round" />
  <rect x="112" y="70" width="48" height="16" rx="6" fill="#2563eb" />
  <path d="M132 70 L145 58" fill="none" stroke="#1f2937" stroke-width="5" stroke-linecap="round" />
  <path d="M152 62 L170 62" fill="none" stroke="#1f2937" stroke-width="5" stroke-linecap="round" />
  <path d="M105 86 L95 72" fill="none" stroke="#1f2937" stroke-width="5" stroke-linecap="round" />

  <rect x="148" y="44" width="34" height="26" rx="4" fill="#22c55e" />
  <rect x="153" y="49" width="24" height="6" rx="2" fill="#dcfce7" />

  <circle cx="98" cy="48" r="8" fill="#111827" />
  <path d="M98 56 L102 72" fill="none" stroke="#111827" stroke-width="5" stroke-linecap="round" />
</svg>
